<svg xmlns="http://www.w3.org/2000/svg" xmlns:xlink="http://www.w3.org/1999/xlink" id="Layer_1" x="0px" y="0px" width="140px" height="40px" viewBox="0 0 140 40" xml:space="preserve">
<text transform="matrix(1 0 0 1 -30.1914 44.0684)" display="none"><tspan x="0" y="0" display="inline" fill="#ED1C24" font-family="'Jost-Regular'" font-size="62">multi</tspan><tspan x="123.068" y="0" display="inline" fill="#ED1C24" font-family="'Jost-Regular'" font-size="62">-</tspan><tspan x="139.188" y="0" display="inline" fill="#ED1C24" font-family="'Jost-Regular'" font-size="62">office</tspan></text>
<path display="none" d="M9.131,34.441H4.162V17.05c0-1.656-0.197-3.003-0.591-4.038c-0.395-1.034-0.993-1.812-1.801-2.329  s-1.832-0.776-3.074-0.776c-1.367,0-2.547,0.279-3.541,0.839c-0.993,0.559-1.76,1.377-2.298,2.453  c-0.539,1.077-0.808,2.36-0.808,3.852v17.391h-4.97V17.05c0-1.656-0.195-3.003-0.589-4.038c-0.395-1.034-0.994-1.812-1.801-2.329  c-0.809-0.518-1.833-0.776-3.075-0.776c-1.366,0-2.547,0.279-3.54,0.839c-0.994,0.559-1.761,1.377-2.298,2.453  c-0.539,1.077-0.809,2.36-0.809,3.852v17.391H-30V5.87h4.969v4.162c0.579-1.077,1.252-1.966,2.02-2.672  c0.766-0.703,1.646-1.231,2.64-1.583c0.994-0.353,2.069-0.528,3.229-0.528c1.324,0,2.524,0.208,3.603,0.621  c1.076,0.414,2.019,1.016,2.826,1.802s1.418,1.76,1.832,2.919c0.993-1.779,2.236-3.115,3.727-4.007  c1.491-0.889,3.188-1.335,5.094-1.335c1.945,0,3.603,0.436,4.969,1.305s2.412,2.143,3.137,3.819  c0.724,1.677,1.087,3.695,1.087,6.056V34.441z"></path>
<path display="none" d="M18.546,5.932c0.684-0.662,1.479-0.994,2.392-0.994c0.952,0,1.759,0.332,2.422,0.994  c0.662,0.662,0.994,1.471,0.994,2.423c0,0.91-0.332,1.707-0.994,2.391c-0.663,0.683-1.47,1.024-2.422,1.024  c-0.912,0-1.708-0.342-2.392-1.024c-0.684-0.684-1.024-1.48-1.024-2.391C17.521,7.403,17.862,6.594,18.546,5.932z M18.546,29.535  c0.684-0.662,1.479-0.994,2.392-0.994c0.952,0,1.759,0.332,2.422,0.994c0.662,0.662,0.994,1.469,0.994,2.422  c0,0.912-0.332,1.707-0.994,2.391c-0.663,0.684-1.47,1.025-2.422,1.025c-0.912,0-1.708-0.342-2.392-1.025s-1.024-1.479-1.024-2.391  C17.521,31.004,17.862,30.197,18.546,29.535z"></path>
<path display="none" d="M32.146,12.454c1.305-2.236,3.075-3.996,5.311-5.279c2.237-1.284,4.741-1.926,7.517-1.926  c2.814,0,5.331,0.642,7.546,1.926c2.215,1.283,3.975,3.043,5.279,5.279s1.957,4.804,1.957,7.702c0,2.858-0.652,5.415-1.957,7.67  c-1.305,2.258-3.064,4.027-5.279,5.311s-4.731,1.926-7.546,1.926c-2.775,0-5.279-0.643-7.517-1.926  c-2.235-1.283-4.006-3.053-5.311-5.311c-1.305-2.256-1.956-4.813-1.956-7.67C30.19,17.257,30.842,14.69,32.146,12.454z   M36.494,25.436c0.85,1.531,2.009,2.742,3.479,3.633c1.469,0.891,3.137,1.336,5,1.336c1.862,0,3.529-0.445,4.999-1.336  s2.629-2.102,3.479-3.633c0.848-1.533,1.273-3.293,1.273-5.28c0-1.988-0.426-3.758-1.273-5.311c-0.85-1.554-2.009-2.765-3.479-3.635  c-1.47-0.868-3.137-1.304-4.999-1.304c-1.863,0-3.531,0.436-5,1.304c-1.471,0.87-2.63,2.081-3.479,3.635  c-0.85,1.553-1.272,3.322-1.272,5.311C35.222,22.143,35.645,23.902,36.494,25.436z"></path>
<path display="none" d="M78.077,5.87v4.659H63.792V5.87H78.077z M76.121-9.378c-0.56-0.187-1.088-0.279-1.585-0.279  c-0.62,0-1.148,0.177-1.583,0.527c-0.435,0.352-0.776,0.942-1.024,1.77c-0.25,0.83-0.373,1.926-0.373,3.293v38.509h-4.97V-4.69  c0-2.276,0.332-4.14,0.994-5.59c0.662-1.448,1.604-2.535,2.826-3.26c1.221-0.725,2.701-1.088,4.441-1.088  c0.909,0,1.718,0.125,2.422,0.373c0.704,0.249,1.314,0.559,1.832,0.931c0.519,0.374,0.921,0.768,1.211,1.181l-2.732,4.1  C77.166-8.747,76.68-9.192,76.121-9.378z"></path>
<path display="none" d="M95.22,5.87v4.659H80.935V5.87H95.22z M93.264-9.378c-0.56-0.187-1.087-0.279-1.584-0.279  c-0.621,0-1.149,0.177-1.584,0.527c-0.435,0.352-0.776,0.942-1.024,1.77c-0.249,0.83-0.373,1.926-0.373,3.293v38.509h-4.969V-4.69  c0-2.276,0.331-4.14,0.994-5.59c0.661-1.448,1.604-2.535,2.826-3.26c1.221-0.725,2.701-1.088,4.44-1.088  c0.91,0,1.718,0.125,2.422,0.373c0.704,0.249,1.315,0.559,1.833,0.931c0.518,0.374,0.92,0.768,1.211,1.181l-2.733,4.1  C94.31-8.747,93.823-9.192,93.264-9.378z"></path>
<path display="none" d="M101.276-8.354c0.683-0.662,1.479-0.994,2.392-0.994c0.952,0,1.759,0.332,2.422,0.994  c0.661,0.663,0.994,1.47,0.994,2.422c0,0.912-0.333,1.708-0.994,2.392c-0.663,0.684-1.47,1.024-2.422,1.024  c-0.912,0-1.709-0.341-2.392-1.024c-0.684-0.684-1.025-1.479-1.025-2.392C100.251-6.884,100.593-7.691,101.276-8.354z M106.151,5.87  v28.572h-4.969V5.87H106.151z"></path>
<path display="none" d="M119.287,25.436c0.848,1.531,2.009,2.742,3.478,3.633c1.471,0.891,3.137,1.336,5,1.336  c1.531,0,2.972-0.238,4.317-0.715c1.345-0.477,2.515-1.117,3.509-1.926c0.994-0.807,1.698-1.666,2.112-2.576v6.209  c-0.994,1.16-2.413,2.061-4.255,2.703c-1.843,0.641-3.736,0.963-5.684,0.963c-2.773,0-5.279-0.643-7.516-1.926  c-2.235-1.283-4.005-3.053-5.31-5.311c-1.305-2.256-1.957-4.813-1.957-7.67c0-2.898,0.652-5.466,1.957-7.702s3.074-3.996,5.31-5.279  c2.236-1.284,4.742-1.926,7.516-1.926c1.947,0,3.841,0.321,5.684,0.963c1.842,0.642,3.261,1.543,4.255,2.702v6.211  c-0.414-0.952-1.118-1.822-2.112-2.608s-2.164-1.418-3.509-1.895c-1.346-0.476-2.786-0.715-4.317-0.715  c-1.863,0-3.529,0.436-5,1.304c-1.469,0.87-2.63,2.081-3.478,3.635c-0.849,1.553-1.273,3.322-1.273,5.311  C118.014,22.143,118.438,23.902,119.287,25.436z"></path>
<path display="none" d="M148.851,33.168c-2.049-1.262-3.644-3.014-4.78-5.248c-1.14-2.236-1.71-4.824-1.71-7.764  c0-2.237,0.343-4.265,1.025-6.088c0.685-1.821,1.646-3.385,2.89-4.688c1.241-1.306,2.731-2.319,4.471-3.044  c1.74-0.725,3.666-1.087,5.775-1.087c2.816,0,5.228,0.59,7.237,1.771c2.009,1.18,3.551,2.867,4.628,5.062  c1.076,2.195,1.613,4.804,1.613,7.827c0,0.289-0.011,0.589-0.03,0.899c-0.021,0.312-0.03,0.509-0.03,0.591H145.53v-4.225h20.495  l-1.986,2.857c0.123-0.207,0.246-0.527,0.372-0.963c0.124-0.435,0.187-0.796,0.187-1.086c0-1.697-0.343-3.169-1.024-4.411  c-0.685-1.241-1.627-2.214-2.827-2.919c-1.2-0.703-2.608-1.056-4.225-1.056c-1.408,0-2.68,0.229-3.819,0.684  c-1.139,0.456-2.101,1.117-2.888,1.987c-0.786,0.87-1.389,1.947-1.802,3.229c-0.414,1.284-0.62,2.733-0.62,4.348  c0,2.238,0.352,4.142,1.056,5.714c0.704,1.574,1.739,2.775,3.106,3.604c1.366,0.828,3.021,1.242,4.967,1.242  c1.947,0,3.665-0.424,5.156-1.273c1.49-0.848,2.753-2.143,3.788-3.883l4.038,2.547c-1.49,2.402-3.364,4.215-5.621,5.436  c-2.258,1.221-4.918,1.832-7.98,1.832C153.251,35.063,150.902,34.432,148.851,33.168z"></path>
<g>
	<g>
		<path fill="#FFFFFF" stroke="#FFFFFF" stroke-width="0.3455" stroke-miterlimit="10" d="M24.779,37.355V25.614    c0-1.173-0.145-2.146-0.427-2.89c-0.294-0.77-0.749-1.356-1.354-1.744c-0.599-0.385-1.365-0.579-2.273-0.579    c-0.988,0-1.856,0.206-2.582,0.615c-0.732,0.411-1.305,1.021-1.7,1.812c-0.39,0.779-0.587,1.717-0.587,2.786v11.741h-2.881V25.614    c0-1.176-0.144-2.147-0.425-2.89c-0.293-0.77-0.75-1.355-1.354-1.744c-0.602-0.385-1.367-0.579-2.274-0.579    c-0.989,0-1.857,0.206-2.582,0.615c-0.733,0.411-1.305,1.021-1.7,1.812c-0.39,0.78-0.588,1.717-0.588,2.786v11.741H1.17V18.164    h2.88v2.707l0.47,0.118l0.051-0.095c0.382-0.712,0.833-1.308,1.338-1.774c0.501-0.459,1.083-0.808,1.73-1.036    c0.654-0.231,1.373-0.35,2.139-0.35c0.875,0,1.679,0.138,2.39,0.41c0.705,0.271,1.33,0.67,1.86,1.186    c0.523,0.51,0.927,1.153,1.198,1.913l0.205,0.573l0.298-0.531c0.658-1.182,1.491-2.078,2.475-2.667    c0.984-0.587,2.12-0.884,3.379-0.884c1.284,0,2.39,0.29,3.284,0.859c0.894,0.567,1.587,1.414,2.063,2.516    c0.484,1.119,0.729,2.49,0.729,4.074v12.172H24.779z"></path>
		<path fill="#FFFFFF" stroke="#FFFFFF" stroke-width="0.3455" stroke-miterlimit="10" d="M36.094,38    c-0.557,0-1.035-0.206-1.456-0.629c-0.423-0.42-0.627-0.897-0.627-1.456c0-0.586,0.204-1.069,0.624-1.476    c0.423-0.408,0.901-0.608,1.459-0.608c0.587,0,1.071,0.198,1.479,0.605c0.407,0.407,0.606,0.893,0.606,1.479    c0,0.559-0.2,1.037-0.61,1.46C37.162,37.795,36.68,38,36.094,38z M36.094,21.688c-0.557,0-1.035-0.205-1.457-0.628    c-0.422-0.422-0.626-0.898-0.626-1.456c0-0.578,0.209-1.075,0.624-1.476c0.423-0.409,0.901-0.608,1.459-0.608    c0.587,0,1.071,0.197,1.479,0.605c0.401,0.402,0.606,0.899,0.606,1.479c0,0.552-0.206,1.042-0.61,1.46    C37.162,21.484,36.68,21.688,36.094,21.688z"></path>
		<path fill="#FFFFFF" stroke="#FFFFFF" stroke-width="0.3455" stroke-miterlimit="10" d="M52.706,37.784    c-1.859,0-3.56-0.435-5.057-1.294c-1.496-0.858-2.697-2.059-3.568-3.568c-0.872-1.508-1.315-3.245-1.315-5.162    c0-1.945,0.443-3.688,1.314-5.184c0.872-1.495,2.073-2.689,3.569-3.547c1.496-0.859,3.196-1.295,5.057-1.295    c1.888,0,3.596,0.436,5.077,1.293c1.481,0.859,2.675,2.053,3.547,3.549s1.315,3.239,1.315,5.184c0,1.917-0.443,3.654-1.316,5.162    c-0.873,1.511-2.066,2.711-3.546,3.57C56.3,37.35,54.592,37.784,52.706,37.784z M52.706,20.401c-1.332,0-2.542,0.315-3.596,0.939    c-1.054,0.623-1.898,1.505-2.507,2.616c-0.607,1.107-0.914,2.387-0.914,3.803s0.308,2.688,0.915,3.781    c0.608,1.098,1.45,1.977,2.504,2.614c1.053,0.639,2.264,0.963,3.598,0.963c1.333,0,2.543-0.324,3.598-0.963    c1.052-0.638,1.895-1.517,2.502-2.614c0.606-1.097,0.915-2.369,0.915-3.781s-0.307-2.691-0.914-3.803    c-0.608-1.113-1.452-1.993-2.505-2.616C55.245,20.717,54.035,20.401,52.706,20.401z"></path>
		<path fill="#FFFFFF" stroke="#FFFFFF" stroke-width="0.3455" stroke-miterlimit="10" d="M67.917,37.355V20.83h-1.931v-2.666h1.931    v-7.575c0-1.525,0.223-2.786,0.663-3.747c0.431-0.944,1.051-1.661,1.842-2.131C71.219,4.238,72.204,4,73.35,4    c0.594,0,1.127,0.081,1.582,0.241c0.462,0.163,0.863,0.367,1.196,0.607c0.267,0.192,0.487,0.394,0.659,0.602l-1.551,2.328    c-0.269-0.345-0.577-0.577-0.919-0.69c-0.411-0.137-0.811-0.208-1.184-0.208c-0.49,0-0.916,0.144-1.268,0.426    c-0.343,0.278-0.61,0.735-0.798,1.358c-0.182,0.603-0.27,1.373-0.27,2.356v7.144h4.506v2.666h-4.506v16.525H67.917z"></path>
		<path fill="#FFFFFF" stroke="#FFFFFF" stroke-width="0.3455" stroke-miterlimit="10" d="M79.766,37.355V20.83h-1.933v-2.666h1.933    v-7.575c0-1.526,0.222-2.787,0.66-3.747c0.433-0.944,1.052-1.661,1.844-2.131C83.066,4.238,84.052,4,85.197,4    c0.594,0,1.125,0.081,1.581,0.241c0.462,0.163,0.864,0.367,1.197,0.607c0.266,0.192,0.487,0.394,0.657,0.602l-1.549,2.328    c-0.269-0.345-0.577-0.576-0.919-0.69c-0.413-0.137-0.811-0.208-1.184-0.208c-0.49,0-0.917,0.144-1.268,0.426    c-0.343,0.278-0.611,0.735-0.799,1.358c-0.179,0.597-0.27,1.39-0.27,2.356v7.144h4.507v2.666h-4.507v16.525H79.766z"></path>
		<path fill="#FFFFFF" stroke="#FFFFFF" stroke-width="0.3455" stroke-miterlimit="10" d="M91.826,37.355V18.164h2.881v19.191    H91.826z M93.267,11.816c-0.561,0-1.036-0.205-1.458-0.627c-0.422-0.422-0.626-0.899-0.626-1.458c0-0.585,0.204-1.068,0.625-1.475    c0.421-0.41,0.898-0.608,1.459-0.608c0.587,0,1.069,0.197,1.478,0.605c0.409,0.41,0.606,0.892,0.606,1.478    c0,0.56-0.2,1.037-0.607,1.46C94.336,11.611,93.853,11.816,93.267,11.816z"></path>
		<path fill="#FFFFFF" stroke="#FFFFFF" stroke-width="0.3455" stroke-miterlimit="10" d="M109.919,37.784    c-1.858,0-3.562-0.435-5.055-1.294c-1.495-0.857-2.697-2.058-3.57-3.568c-0.873-1.508-1.313-3.245-1.313-5.162    c0-1.943,0.44-3.688,1.313-5.184s2.075-2.689,3.57-3.547c1.492-0.859,3.195-1.295,5.055-1.295c1.309,0,2.598,0.219,3.836,0.651    c1.181,0.409,2.104,0.984,2.757,1.709v3.184c-0.274-0.358-0.613-0.699-1.012-1.015c-0.709-0.56-1.553-1.014-2.506-1.354    c-0.956-0.338-1.992-0.509-3.075-0.509c-1.329,0-2.54,0.315-3.596,0.939c-1.057,0.624-1.898,1.505-2.505,2.616    c-0.606,1.109-0.914,2.389-0.914,3.803s0.308,2.685,0.915,3.781c0.605,1.095,1.446,1.976,2.502,2.614    c1.055,0.639,2.266,0.963,3.598,0.963c1.088,0,2.122-0.171,3.075-0.51c0.958-0.339,1.801-0.802,2.507-1.376    c0.398-0.323,0.736-0.663,1.011-1.015v3.207c-0.649,0.725-1.576,1.299-2.757,1.71C112.516,37.565,111.224,37.784,109.919,37.784z"></path>
		<path fill="#FFFFFF" stroke="#FFFFFF" stroke-width="0.3455" stroke-miterlimit="10" d="M129.365,37.784    c-1.772,0-3.364-0.426-4.729-1.267c-1.366-0.842-2.443-2.025-3.201-3.519c-0.765-1.498-1.153-3.26-1.153-5.239    c0-1.502,0.231-2.885,0.69-4.109c0.462-1.221,1.113-2.28,1.939-3.146c0.827-0.87,1.834-1.556,2.997-2.04    c1.162-0.483,2.47-0.729,3.883-0.729c1.887,0,3.522,0.399,4.862,1.186c1.333,0.783,2.372,1.921,3.091,3.381    c0.719,1.472,1.085,3.25,1.085,5.288c0,0.194-0.006,0.396-0.019,0.604l-0.009,0.149h-15.577l0.023,0.298    c0.092,1.12,0.332,2.117,0.712,2.967c0.509,1.135,1.267,2.014,2.257,2.612c0.981,0.598,2.186,0.898,3.574,0.898    c1.388,0,2.634-0.307,3.7-0.916c0.996-0.567,1.86-1.42,2.569-2.541l2.319,1.464c-0.975,1.498-2.196,2.651-3.633,3.427    C133.232,37.369,131.422,37.784,129.365,37.784z M129.791,20.186c-1,0-1.922,0.166-2.742,0.493    c-0.82,0.329-1.526,0.815-2.097,1.444c-0.569,0.63-1.008,1.414-1.305,2.332c-0.12,0.379-0.219,0.782-0.29,1.197l-0.053,0.323    h12.346l-0.02-0.296c-0.069-0.975-0.312-1.851-0.722-2.604c-0.496-0.898-1.188-1.611-2.059-2.121    C131.982,20.444,130.953,20.186,129.791,20.186z"></path>
	</g>
</g>
</svg>